<svg width="24" height="24" viewBox="0 0 24 24" fill="none" xmlns="http://www.w3.org/2000/svg">
<path d="M13.7625 1.68979C13.6464 1.18866 13.357 0.744661 12.9454 0.436134C12.5338 0.127606 12.0264 -0.0256173 11.5128 0.00350143C10.9993 0.0326202 10.5125 0.242209 10.1384 0.595285C9.76427 0.94836 9.5269 1.42223 9.46816 1.93327C9.40942 2.44431 9.53307 2.95967 9.8173 3.38842C10.1015 3.81717 10.5281 4.13175 11.0216 4.27664C11.5152 4.42153 12.0441 4.38742 12.515 4.18033C12.9859 3.97325 13.3685 3.60649 13.5953 3.14479C14.976 3.4592 16.2595 4.10476 17.3351 5.02579C18.4107 5.94682 19.2461 7.11567 19.7693 8.43154L21.1005 7.90804C20.4843 6.34728 19.492 4.96297 18.2118 3.87814C16.9316 2.79331 15.4033 2.04159 13.7625 1.68979ZM11.646 2.91829C11.5486 2.92142 11.4515 2.90493 11.3605 2.86979C11.2696 2.83466 11.1866 2.7816 11.1166 2.71378C11.0465 2.64595 10.9909 2.56473 10.9528 2.47495C10.9148 2.38517 10.8952 2.28867 10.8952 2.19116C10.8952 2.09366 10.9148 1.99715 10.9528 1.90737C10.9909 1.8176 11.0465 1.73638 11.1166 1.66855C11.1866 1.60072 11.2696 1.54766 11.3605 1.51253C11.4515 1.4774 11.5486 1.46091 11.646 1.46404C11.839 1.46404 12.024 1.54068 12.1605 1.67712C12.2969 1.81355 12.3735 1.99859 12.3735 2.19154C12.3735 2.38448 12.2969 2.56953 12.1605 2.70596C12.024 2.84239 11.839 2.91829 11.646 2.91829ZM8.44579 3.52279L7.90804 2.19229C6.34728 2.80853 4.96297 3.80084 3.87814 5.08102C2.79331 6.3612 2.04159 7.88957 1.68979 9.53029C1.18866 9.64642 0.744661 9.93582 0.436134 10.3474C0.127606 10.759 -0.0256173 11.2664 0.00350143 11.78C0.0326202 12.2936 0.242209 12.7804 0.595285 13.1545C0.94836 13.5286 1.42223 13.7659 1.93327 13.8247C2.44431 13.8834 2.95967 13.7598 3.38842 13.4755C3.81717 13.1913 4.13175 12.7648 4.27664 12.2712C4.42153 11.7776 4.38742 11.2487 4.18033 10.7778C3.97325 10.3069 3.60649 9.92434 3.14479 9.69754C3.46049 8.31519 4.10815 7.03055 5.03177 5.95469C5.9554 4.87883 7.12717 4.04414 8.44579 3.52279ZM2.19079 12.3743C2.09525 12.3743 2.00065 12.3555 1.91239 12.3189C1.82412 12.2824 1.74392 12.2288 1.67637 12.1612C1.60881 12.0937 1.55523 12.0135 1.51867 11.9252C1.48211 11.8369 1.46329 11.7423 1.46329 11.6468C1.46329 11.5513 1.48211 11.4566 1.51867 11.3684C1.55523 11.2801 1.60881 11.1999 1.67637 11.1324C1.74392 11.0648 1.82412 11.0112 1.91239 10.9747C2.00065 10.9381 2.09525 10.9193 2.19079 10.9193C2.38373 10.9193 2.56877 10.9959 2.70521 11.1324C2.84164 11.2688 2.91829 11.4538 2.91829 11.6468C2.91829 11.8397 2.84164 12.0248 2.70521 12.1612C2.56877 12.2976 2.38373 12.3743 2.19079 12.3743ZM11.646 18.9195C11.2403 18.9209 10.843 19.0352 10.4986 19.2499C10.1543 19.4645 9.87665 19.7708 9.69679 20.1345C8.31586 19.8202 7.03215 19.1745 5.95641 18.2534C4.88066 17.3322 4.04518 16.1631 3.52204 14.847L2.19154 15.3848C2.80978 16.9482 3.80542 18.3342 5.08962 19.4192C6.37381 20.5042 7.90662 21.2545 9.55129 21.603C9.64576 22.0034 9.85148 22.369 10.1447 22.6575C10.438 22.9461 10.8068 23.1458 11.2087 23.2338C11.6105 23.3218 12.0291 23.2944 12.4161 23.1548C12.8031 23.0152 13.1427 22.7691 13.3959 22.4448C13.649 22.1205 13.8053 21.7313 13.8468 21.322C13.8883 20.9127 13.8133 20.5 13.6304 20.1315C13.4475 19.763 13.1641 19.4537 12.813 19.2393C12.4619 19.0248 12.0574 18.914 11.646 18.9195ZM11.646 21.8288C11.4531 21.8288 11.2681 21.7521 11.1316 21.6157C10.9952 21.4793 10.9185 21.2942 10.9185 21.1013C10.9185 20.9083 10.9952 20.7233 11.1316 20.5869C11.2681 20.4504 11.4531 20.3738 11.646 20.3738C11.839 20.3738 12.024 20.4504 12.1605 20.5869C12.2969 20.7233 12.3735 20.9083 12.3735 21.1013C12.3735 21.2942 12.2969 21.4793 12.1605 21.6157C12.024 21.7521 11.839 21.8288 11.646 21.8288ZM23.2823 11.646C23.2836 11.2566 23.1807 10.874 22.9843 10.5377C22.7879 10.2015 22.5051 9.9239 22.1652 9.7338C21.8254 9.54371 21.4408 9.448 21.0515 9.45662C20.6622 9.46524 20.2823 9.57786 19.9512 9.78281C19.62 9.98775 19.3498 10.2776 19.1684 10.6222C18.9871 10.9668 18.9012 11.3536 18.9198 11.7426C18.9383 12.1316 19.0606 12.5085 19.274 12.8343C19.4873 13.16 19.7839 13.4228 20.133 13.5953C19.8186 14.9761 19.1729 16.2596 18.2517 17.3352C17.3306 18.4109 16.1615 19.2462 14.8455 19.7693L15.384 21.1005C16.9474 20.4823 18.3335 19.4867 19.4185 18.2025C20.5035 16.9183 21.2537 15.3855 21.6023 13.7408C22.0757 13.6288 22.4982 13.3619 22.8026 12.9824C23.1069 12.6028 23.2758 12.1325 23.2823 11.646ZM21.0998 12.3735C20.9068 12.3735 20.7218 12.2969 20.5854 12.1605C20.4489 12.024 20.3723 11.839 20.3723 11.646C20.3723 11.4531 20.4489 11.2681 20.5854 11.1316C20.7218 10.9952 20.9068 10.9185 21.0998 10.9185C21.2927 10.9185 21.4778 10.9952 21.6142 11.1316C21.7506 11.2681 21.8273 11.4531 21.8273 11.646C21.8273 11.839 21.7506 12.024 21.6142 12.1605C21.4778 12.2969 21.2927 12.3735 21.0998 12.3735Z" fill="white"/>
</svg>
