<svg width="8" height="10" viewBox="0 0 8 10" fill="none" xmlns="http://www.w3.org/2000/svg">
<path d="M5.6655 4.99076C6.0793 4.58671 6.36327 4.06849 6.48117 3.50229C6.59906 2.93608 6.54552 2.34759 6.32738 1.81196C6.10924 1.27632 5.73641 0.817864 5.25649 0.495121C4.77657 0.172378 4.21135 0 3.633 0C3.05465 0 2.48943 0.172378 2.00951 0.495121C1.52959 0.817864 1.15676 1.27632 0.93862 1.81196C0.720483 2.34759 0.666942 2.93608 0.784835 3.50229C0.902728 4.06849 1.18671 4.58671 1.6005 4.99076C1.10807 5.32361 0.704697 5.77206 0.425684 6.29688C0.146671 6.82169 0.000513536 7.40688 0 8.00126V9.45551H7.27275V8.00051C7.27149 7.40553 7.1243 6.81994 6.84409 6.29507C6.56387 5.77021 6.15918 5.32284 5.6655 4.99076ZM2.18175 2.90951C2.18175 2.71844 2.21938 2.52923 2.29251 2.3527C2.36563 2.17618 2.4728 2.01578 2.60791 1.88067C2.74302 1.74556 2.90342 1.63838 3.07995 1.56526C3.25647 1.49214 3.44568 1.45451 3.63675 1.45451C3.82782 1.45451 4.01703 1.49214 4.19355 1.56526C4.37008 1.63838 4.53048 1.74556 4.66559 1.88067C4.8007 2.01578 4.90787 2.17618 4.981 2.3527C5.05412 2.52923 5.09175 2.71844 5.09175 2.90951C5.09175 3.2954 4.93846 3.66548 4.66559 3.93835C4.39272 4.21121 4.02264 4.36451 3.63675 4.36451C3.25086 4.36451 2.88078 4.21121 2.60791 3.93835C2.33504 3.66548 2.18175 3.2954 2.18175 2.90951ZM1.45425 8.00051C1.44887 7.71054 1.50134 7.42242 1.60859 7.15296C1.71584 6.8835 1.87571 6.63813 2.07888 6.43116C2.28204 6.2242 2.52441 6.0598 2.79183 5.94758C3.05925 5.83535 3.34636 5.77755 3.63638 5.77755C3.92639 5.77755 4.2135 5.83535 4.48092 5.94758C4.74834 6.0598 4.99071 6.2242 5.19387 6.43116C5.39704 6.63813 5.55691 6.8835 5.66416 7.15296C5.77141 7.42242 5.82388 7.71054 5.8185 8.00051H1.45425Z" fill="white"/>
</svg>
