<svg width="24" height="24" viewBox="0 0 24 24" fill="none" xmlns="http://www.w3.org/2000/svg">
<path d="M12 22.4998C19.25 22.4998 22 20.9998 22 15.4998M3.4015 17.8913C2.5595 17.6808 2 16.9123 2 16.0448V12.9558C2 12.0878 2.5595 11.3188 3.4015 11.1083C4.2145 10.9048 5.2825 10.6763 6.3325 10.5663C7.0515 10.4908 7.6845 10.9123 7.804 11.6248C7.909 12.2468 8 13.1703 8 14.4998C8 15.8298 7.9085 16.7533 7.804 17.3748C7.684 18.0873 7.0515 18.5088 6.3325 18.4338C5.2825 18.3238 4.2145 18.0948 3.4015 17.8913Z" stroke="white" stroke-linecap="round" stroke-linejoin="round"/>
<path d="M20.5985 17.8913C21.4405 17.6808 22 16.9123 22 16.0448V12.9558C22 12.0878 21.4405 11.3188 20.5985 11.1083C19.7855 10.9048 18.7175 10.6763 17.6675 10.5663C16.9485 10.4908 16.3155 10.9123 16.196 11.6248C16.091 12.2468 16 13.1703 16 14.4998C16 15.8298 16.0915 16.7533 16.196 17.3748C16.316 18.0873 16.9485 18.5088 17.6675 18.4338C18.7175 18.3238 19.7855 18.0948 20.5985 17.8913Z" stroke="white" stroke-linecap="round" stroke-linejoin="round"/>
<path d="M22 12.9555V11.5C22 5.977 17.523 1.5 12 1.5C6.477 1.5 2 5.977 2 11.5V12.9555M18.978 10.7565C18.693 7.255 15.678 4.5 12 4.5C8.322 4.5 5.307 7.255 5.022 10.7565" stroke="white" stroke-linecap="round" stroke-linejoin="round"/>
</svg>
