<svg width="18" height="21" viewBox="0 0 18 21" fill="none" xmlns="http://www.w3.org/2000/svg">
<path fill-rule="evenodd" clip-rule="evenodd" d="M16.5 6.75H13.5V4.5C13.5 2.01472 11.4853 0 9 0C6.51472 0 4.5 2.01472 4.5 4.5V6.75H1.5C0.671573 6.75 0 7.42157 0 8.25V18.75C0 19.5784 0.671573 20.25 1.5 20.25H16.5C17.3284 20.25 18 19.5784 18 18.75V8.25C18 7.42157 17.3284 6.75 16.5 6.75ZM6 4.5C6 2.84315 7.34315 1.5 9 1.5C10.6569 1.5 12 2.84315 12 4.5V6.75H6V4.5ZM16.5 18.75H1.5V8.25H16.5V18.75ZM10.125 13.5C10.125 14.1213 9.62132 14.625 9 14.625C8.37868 14.625 7.875 14.1213 7.875 13.5C7.875 12.8787 8.37868 12.375 9 12.375C9.62132 12.375 10.125 12.8787 10.125 13.5Z" fill="#61698A"/>
</svg>
